<svg width="841" height="49" fill="none" xmlns="http://www.w3.org/2000/svg"><path d="M31.35 46.852c.12-.965.77-2.61 1.345-3.966L45.993 11.94c.119 4.741.119 9.098.119 12.68V38c0 4.621-2.183 5.61-5.617 6.191v2.66h20.447v-2.66c-1.345-.656-3.29-1.185-5.28-1.57-.337-6.173-.337-11.829-.337-18.002V11.164c0-4.622 2.139-5.662 5.616-6.192V1.99c-6.573.315-9.982.315-14.498.315h-1.032L30.625 36.177 16.946 2.305h-6.242c-2.977 0-4.272 0-10.395-.315v2.976c1.413.58 3.621 1.236 5.279 1.57.337 6.242.406 13.575.406 18.342v12.724c0 5.347-2.59 6.047-5.685 6.583v2.66h16.055v-2.66c-1.488-.656-3.602-1.306-5.279-1.62-.337-6.192-.381-11.785-.381-17.687v-12.56l13.222 30.561c.576 1.356 1.226 3.002 1.345 3.967h6.073l.007.006ZM106.018 28.51V11.404c0-5.007 2.521-5.902 5.617-6.438v-2.66a133.128 133.128 0 0 0-15.862 0v2.66c1.345.725 3.553 1.236 5.235 1.57.313 6.482.382 13.33.382 18.002v5.006c0 8.588-3.89 14.25-11.234 14.25-6.961 0-10.895-5.467-10.895-14.25V11.158c0-4.622 2.139-5.612 5.617-6.192v-2.66a222.737 222.737 0 0 0-20.522 0v2.66c1.413.656 3.359 1.236 5.354 1.57.338 6.173.338 11.829.338 18.002v6.437c0 10.404 5.397 17.182 17.782 17.182 11.233 0 18.195-6.318 18.195-19.647h-.007ZM153.635 34.103l-3.621-.46-3.409 8.852c-5.811.51-10.32.656-16.394.776a428.388 428.388 0 0 1-.312-16.646h9.025c.263 1.885.838 3.776 1.683 5.397h2.902v-15.41h-3.096c-.72 3.121-1.37 5.397-4.585 5.397h-5.929V5.817c5.16.145 10.395.46 15.936 1.116l2.183 8.128 3.672-.46a48.785 48.785 0 0 0 0-12.945c-8.112.58-16.894.656-21.791.656-4.51 0-7.487-.076-14.905-.316v2.926c1.413.63 3.29 1.16 5.279 1.475.337 6.003.406 12.68.406 18.223v13.455c0 4.237-1.87 5.586-5.685 6.122v2.661h37.271c1.032-4.237 1.558-8.518 1.37-12.749v-.006ZM185.627 42.375c-4.441.435-8.713.63-12.24.845-.263-6.967-.263-13.09-.263-18.607V11.158c0-4.622 2.139-5.612 5.617-6.192v-2.66a222.746 222.746 0 0 0-20.522 0v2.66c1.414.656 3.359 1.236 5.354 1.57.338 6.173.338 11.829.338 18.077V38.07c0 4.237-1.87 5.586-5.686 6.122v2.661h33.482c1.107-4.817 1.607-9.483 1.538-14.3l-3.671-.46-3.934 10.283h-.013ZM224.295 42.375c-4.441.435-8.713.63-12.241.845-.262-6.967-.262-13.09-.262-18.607V11.158c0-4.622 2.139-5.612 5.616-6.192v-2.66a222.724 222.724 0 0 0-20.521 0v2.66c1.413.656 3.358 1.236 5.354 1.57.337 6.173.337 11.829.337 18.077V38.07c0 4.237-1.87 5.586-5.685 6.122v2.661h33.481c1.107-4.817 1.608-9.483 1.539-14.3l-3.672-.46-3.934 10.283h-.012ZM267.141 42.495c-5.81.51-10.32.656-16.393.776a426.546 426.546 0 0 1-.313-16.646h9.026c.262 1.885.838 3.776 1.682 5.397h2.902v-15.41h-3.096c-.719 3.121-1.37 5.397-4.585 5.397h-5.929V5.817c5.16.145 10.395.46 15.937 1.116l2.183 8.128 3.671-.46a48.701 48.701 0 0 0 0-12.945c-8.112.58-16.894.656-21.791.656-4.51 0-7.487-.076-14.905-.316v2.926c1.414.63 3.29 1.16 5.279 1.475.338 6.003.407 12.68.407 18.223v13.455c0 4.237-1.871 5.586-5.686 6.122v2.661h37.272c1.032-4.237 1.557-8.518 1.37-12.749l-3.622-.46-3.409 8.852v-.006ZM313.582 35.672l-5.542-9.363c5.998-2.226 9.67-6.507 9.67-12.22 0-6.897-5.398-12.244-17.019-12.244-3.359 0-5.999.384-8.519.46-3.747 0-6.843-.076-13.417-.315v2.925c1.414.63 3.29 1.16 5.279 1.551.338 5.858.407 12.605.407 18.147v13.38c0 4.621-2.208 5.611-5.686 6.191v2.661h20.522v-2.66c-1.37-.656-3.29-1.186-5.304-1.57-.194-5.007-.313-9.748-.313-14.616h3.935c.575 0 1.15 0 1.726-.076l8.018 13.84c1.345 2.346 2.377 4.546 2.834 5.808 4.391-.606 8.256-.726 13.035-.726l.312-2.66c-4.778-1.381-7.299-4.111-9.938-8.519v.006Zm-15.337-12.288h-4.585V6.857c1.727-.315 3.603-.655 5.354-.655 4.967 0 8.138 3 8.138 8.323 0 6.242-4.128 8.852-8.907 8.852v.007ZM402.943 4.966v-2.66c-5.041-.316-11.283-.316-15.862 0v2.66c1.345.58 3.478 1.236 5.16 1.57l-7.605 28.67L374.822 2.3h-6.767L357.997 36.51l-6.455-25.429c-1.226-4.886 1.295-5.731 3.934-6.122V2.305c-6.073-.315-14.448-.315-20.571 0v2.661c1.413.58 3.602 1.236 5.21 1.57l10.514 35.953c.457 1.5.982 3.581 1.176 4.357h8.062c.05-.845.507-2.857.957-4.357l8.45-26.545 7.875 26.545c.456 1.355 1.107 3.632 1.151 4.357h8.062c0-.776.576-3.002.982-4.357l9.094-31.142c1.345-4.817 3.528-5.662 6.505-6.387v.006ZM427.491 5.767c-.72-1.885-1.107-3.146-1.107-3.462-2.377-.315-5.236-.315-7.225 0 0 .385-.262 1.696-.957 3.506l-13.034 31.987c-1.87 4.502-4.779 6.002-6.962 6.387v2.66h14.88v-2.66c-1.151-.53-2.689-1.04-4.322-1.381l3.434-9.099h17.163l1.607 4.093c1.802 4.69-.719 5.807-3.865 6.387v2.66h20.834v-2.66c-1.176-.53-2.858-1.04-4.509-1.425L427.491 5.767ZM413.88 29.09l6.768-18.002 6.961 18.002H413.88ZM473.118 27.47c1.414.58 3.528 1.185 5.16 1.424.313 5.278.382 10.404.382 13.6-2.327.846-4.585 1.306-6.53 1.306-8.45 0-13.466-7.812-13.466-19.527 0-11.716 5.016-18.922 13.923-18.922 2.258 0 4.584.46 7.105 1.425l2.571 9.628 3.671-.46c.601-4.162.526-8.11 0-12.27-4.559-1.886-8.881-2.687-13.153-2.687-14.761 0-24.7 9.628-24.7 23.809 0 14.18 9.025 23.348 23.161 23.348 5.279 0 11.014-1.38 16.631-4.502V33.58c0-4.817 2.258-5.731 5.542-6.122v-2.592c-6.574-.34-13.729-.34-20.303 0v2.592l.006.012ZM526.598 4.966c1.414.725 3.334 1.236 5.279 1.57.194 4.742.313 11.299.313 26.709L509.435 2.299h-2.902c-2.977 0-4.272 0-10.395-.316V4.96c1.414.58 3.621 1.235 5.279 1.57.338 6.046.406 12.604.406 18.001v13.456c0 4.962-2.589 5.662-5.685 6.191v2.661h16.056v-2.66c-1.539-.726-3.553-1.306-5.354-1.621-.263-6.192-.313-12.1-.313-18.027V13.667l21.291 28.695c1.607 2.32 2.639 4.017 2.639 4.477h6.311V11.21c0-4.742 2.208-5.713 5.617-6.243v-2.66c-5.354-.316-10.896-.316-15.793 0v2.66h.006ZM577.936 42.495c-5.811.51-10.32.656-16.394.776a428.388 428.388 0 0 1-.312-16.646h9.025c.263 1.885.838 3.776 1.683 5.397h2.902v-15.41h-3.096c-.72 3.121-1.345 5.397-4.585 5.397h-5.929V5.817c5.16.145 10.395.46 15.937 1.116l2.182 8.128 3.672-.46a48.785 48.785 0 0 0 0-12.945c-8.112.58-16.894.656-21.791.656-4.51 0-7.487-.076-14.905-.316v2.926c1.413.63 3.29 1.16 5.279 1.475.337 6.003.406 12.68.406 18.223v13.455c0 4.237-1.87 5.586-5.685 6.122v2.661h37.271c1.032-4.237 1.558-8.518 1.37-12.749l-3.621-.46-3.409 8.852v-.006ZM624.376 35.673l-5.541-9.364c5.998-2.226 9.669-6.507 9.669-12.22 0-6.897-5.398-12.244-17.019-12.244-3.358 0-5.998.384-8.519.46-3.746 0-6.842-.076-13.416-.315v2.925c1.414.631 3.29 1.16 5.279 1.552.338 5.857.407 12.604.407 18.146v13.38c0 4.622-2.208 5.612-5.686 6.192v2.66h20.522v-2.66c-1.37-.656-3.29-1.186-5.304-1.57-.194-5.007-.313-9.748-.313-14.616h3.934c.576 0 1.151 0 1.727-.076l8.018 13.84c1.345 2.346 2.377 4.547 2.833 5.808 4.391-.606 8.257-.725 13.035-.725l.313-2.661c-4.779-1.381-7.274-4.111-9.939-8.519v.007Zm-15.336-12.29h-4.585V6.859c1.726-.316 3.603-.656 5.354-.656 4.966 0 8.137 3.001 8.137 8.323 0 6.242-4.128 8.852-8.906 8.852v.007ZM663.938 23.612 655 46.538h2.214l2.683-7.201h10.371l2.608 7.2h2.214l-8.706-22.925h-2.446Zm-3.309 13.878 4.441-12.037 4.46 12.037h-8.901ZM695.862 29.854a12.217 12.217 0 0 0-1.17-2.516 6.398 6.398 0 0 0-1.851-1.999 8.376 8.376 0 0 0-1.608-.933c-.588-.227-1.15-.416-1.738-.53-.607-.094-1.208-.189-1.814-.227-.588-.037-1.226-.037-1.852-.037h-7.78v22.926h7.78c.757 0 1.514-.038 2.227-.133.738-.057 1.457-.189 2.152-.397a9.315 9.315 0 0 0 1.964-.839c.606-.34 1.169-.82 1.701-1.431a8.236 8.236 0 0 0 1.32-1.904c.356-.687.606-1.413.831-2.17.207-.743.376-1.506.476-2.282.094-.8.112-1.563.112-2.339s-.056-1.583-.15-2.516a16.881 16.881 0 0 0-.606-2.667l.006-.006Zm-1.551 7.636a10.706 10.706 0 0 1-.588 2.414c-.282.801-.701 1.507-1.17 2.17-.475.668-1.113 1.178-1.87 1.563-.888.48-1.739.763-2.589.858-.851.132-1.777.189-2.74.189h-5.16V25.453h5.16c.944 0 1.889.075 2.796.17.926.095 1.739.34 2.395.687a6.199 6.199 0 0 1 1.964 1.602 8.194 8.194 0 0 1 1.207 2.131c.282.8.488 1.602.588 2.453.094.857.169 1.715.169 2.534 0 .82-.075 1.602-.169 2.46h.007ZM707.877 43.984l-6.861-20.372h-2.246l7.894 22.926h2.364l7.893-22.926h-2.226l-6.818 20.372ZM737.594 26.506a10.002 10.002 0 0 0-3.346-2.573c-1.363-.611-2.908-.933-4.666-.933-1.757 0-3.234.322-4.516.971-1.301.63-2.402 1.488-3.283 2.573a11.564 11.564 0 0 0-2.002 3.846c-.475 1.469-.682 3.026-.682 4.722 0 1.697.207 3.216.663 4.647.438 1.47 1.095 2.743 1.983 3.828.888 1.103 1.983 1.96 3.328 2.61 1.319.63 2.87.952 4.609.952 1.739 0 3.284-.321 4.61-.952 1.326-.65 2.439-1.507 3.309-2.61.888-1.085 1.551-2.359 2.02-3.828.457-1.425.663-2.988.663-4.647 0-1.658-.206-3.26-.663-4.741-.469-1.47-1.132-2.743-2.02-3.865h-.007Zm.075 12.453c-.356 1.235-.85 2.326-1.532 3.26a7.79 7.79 0 0 1-2.608 2.225c-1.076.574-2.346.858-3.834.858-1.489 0-2.777-.284-3.816-.839a7.061 7.061 0 0 1-2.627-2.232c-.681-.914-1.188-1.999-1.513-3.235a14.58 14.58 0 0 1-.513-3.884c0-1.368.169-2.61.513-3.865a9.876 9.876 0 0 1 1.513-3.272c.663-.914 1.552-1.677 2.627-2.245 1.039-.574 2.308-.876 3.759-.876 1.301 0 2.496.227 3.534.706 1.039.48 1.964 1.141 2.684 2.037.738.895 1.301 1.98 1.72 3.221.375 1.274.569 2.705.569 4.307 0 1.33-.169 2.61-.476 3.846v-.012ZM759.88 41.512a7.427 7.427 0 0 1-1.514 1.961c-.606.593-1.338 1.028-2.114 1.35a7.426 7.426 0 0 1-2.664.479c-1.552 0-2.834-.284-3.872-.896-1.057-.611-1.87-1.374-2.477-2.364-.607-.952-1.038-2.037-1.282-3.273a16.748 16.748 0 0 1-.413-3.751c0-1.375.15-2.648.475-3.884.282-1.217.757-2.308 1.414-3.222.644-.933 1.457-1.696 2.439-2.226.982-.536 2.171-.839 3.534-.839 1.927 0 3.515.417 4.704 1.255 1.207.82 2.02 2.226 2.477 4.168h2.207a10.733 10.733 0 0 0-1.019-3.159 7.457 7.457 0 0 0-1.889-2.264 9.385 9.385 0 0 0-2.646-1.387 12.06 12.06 0 0 0-3.271-.46c-1.513 0-2.89.227-4.19.65a8.401 8.401 0 0 0-3.347 2.093c-.944.99-1.682 2.226-2.214 3.77-.55 1.526-.832 3.374-.832 5.562 0 1.62.188 3.177.551 4.628.337 1.45.944 2.723 1.738 3.846a8.279 8.279 0 0 0 3.021 2.61c1.226.669 2.759.99 4.498.99 1.513 0 2.833-.227 3.965-.668a8.66 8.66 0 0 0 2.871-1.753 8.868 8.868 0 0 0 1.908-2.61c.475-.99.85-2.018 1.094-3.122h-2.251c-.207.915-.488 1.753-.907 2.516h.006ZM773.996 23.611l-8.938 22.926h2.214l2.683-7.2h10.371l2.608 7.2h2.214l-8.707-22.925h-2.445Zm-3.309 13.878 4.441-12.036 4.46 12.036h-8.901ZM786.067 25.46h7.193v21.078h2.151V25.459h7.2v-1.847h-16.544v1.847ZM807.753 35.585h11.709v-1.847h-11.709v-8.28h12.978v-1.846h-15.136v22.925h15.455V44.69h-13.297v-9.105ZM839.64 37.685a5.667 5.667 0 0 0-1.495-1.772c-.607-.473-1.301-.839-2.077-1.122a25.084 25.084 0 0 0-2.477-.725l-2.458-.574a11.27 11.27 0 0 1-2.251-.706 5.993 5.993 0 0 1-1.702-1.085c-.475-.454-.757-1.047-.888-1.79a4.352 4.352 0 0 1 .094-1.772c.15-.606.475-1.16.907-1.64.456-.473 1.057-.876 1.814-1.198.719-.284 1.645-.454 2.739-.454.738 0 1.42.095 2.096.303.663.189 1.244.48 1.795.876.525.416.944.933 1.263 1.564.282.65.438 1.412.438 2.27h2.058c0-.933-.169-1.81-.476-2.648a6.31 6.31 0 0 0-1.419-2.188 6.82 6.82 0 0 0-2.377-1.463 10.126 10.126 0 0 0-3.384-.555c-1.307 0-2.364.17-3.346.517-.982.366-1.777.8-2.396 1.375a5.466 5.466 0 0 0-1.457 1.98 5.353 5.353 0 0 0-.513 2.282c0 1.122.188 2.037.607 2.78.412.726.925 1.331 1.588 1.81.626.48 1.364.82 2.214 1.104.814.283 1.664.517 2.552.706.851.227 1.702.416 2.571.65.813.207 1.533.478 2.214.819.626.36 1.132.839 1.551 1.375.401.53.588 1.273.588 2.169 0 .63-.093 1.235-.3 1.81a3.971 3.971 0 0 1-1.057 1.5c-.475.441-1.057.782-1.795 1.046-.719.246-1.607.379-2.627.379-.851 0-1.664-.095-2.421-.322a5.283 5.283 0 0 1-2.001-.952c-.607-.441-1.076-1.028-1.414-1.753-.375-.706-.606-1.563-.7-2.572h-2.077c0 1.236.225 2.326.626 3.234.413.934.982 1.715 1.72 2.327.719.65 1.607 1.122 2.608 1.425 1.02.284 2.114.454 3.284.454 2.627 0 4.685-.568 6.142-1.753 1.438-1.179 2.17-2.8 2.17-4.93 0-1.123-.187-2.037-.525-2.781h-.006Z" fill="#fff"/></svg>