<svg width="357" height="46" fill="none" xmlns="http://www.w3.org/2000/svg"><path d="M17.476 25.722c.067-.541.433-1.465.757-2.225l7.488-17.36c.066 2.66.066 5.104.066 7.113v7.506c0 2.592-1.229 3.148-3.162 3.473v1.493h11.513v-1.493c-.757-.368-1.853-.665-2.973-.88-.19-3.463-.19-6.636-.19-10.099V5.702c0-2.593 1.205-3.177 3.163-3.474V.555c-3.702.177-5.621.177-8.164.177h-.581l-8.326 19.002L9.365.732H5.85c-1.677 0-2.406 0-5.854-.177v1.67c.796.325 2.04.693 2.973.88.19 3.502.229 7.616.229 10.29v7.138c0 3-1.459 3.392-3.202 3.693v1.492h9.041v-1.492a15.114 15.114 0 0 0-2.973-.91c-.19-3.473-.214-6.61-.214-9.921V6.349l7.445 17.144c.324.76.69 1.684.757 2.225h3.42l.004.004ZM59.52 15.432V5.836c0-2.808 1.42-3.31 3.163-3.611V.732a75.244 75.244 0 0 0-8.932 0v1.493c.758.407 2 .693 2.948.88.176 3.637.215 7.478.215 10.1v2.807c0 4.818-2.19 7.994-6.325 7.994-3.92 0-6.136-3.066-6.136-7.994V5.698c0-2.592 1.205-3.148 3.163-3.473V.732a125.894 125.894 0 0 0-11.556 0v1.493c.796.368 1.892.693 3.015.88.19 3.463.19 6.636.19 10.1v3.61c0 5.837 3.04 9.64 10.014 9.64 6.325 0 10.245-3.545 10.245-11.023h-.004ZM86.333 18.57l-2.04-.258-1.919 4.966c-3.272.286-5.811.368-9.23.435-.135-3.463-.177-6.53-.177-9.338h5.082c.148 1.057.472 2.119.948 3.028h1.634V8.758h-1.743c-.406 1.75-.772 3.028-2.582 3.028h-3.339V2.702c2.906.082 5.853.259 8.974.626l1.23 4.56 2.067-.258a27.247 27.247 0 0 0 0-7.262c-4.568.325-9.513.368-12.271.368-2.54 0-4.216-.043-8.393-.177V2.2c.796.354 1.853.651 2.973.828.19 3.367.229 7.113.229 10.222v7.548c0 2.377-1.053 3.134-3.202 3.435v1.492h20.988c.58-2.377.877-4.778.77-7.152v-.003ZM104.347 23.21c-2.5.245-4.906.354-6.892.474-.148-3.908-.148-7.343-.148-10.438V5.698c0-2.592 1.204-3.148 3.163-3.473V.732a125.9 125.9 0 0 0-11.556 0v1.493c.796.368 1.891.693 3.015.88.19 3.463.19 6.636.19 10.142v7.548c0 2.377-1.053 3.134-3.201 3.434v1.493h18.853c.623-2.703.905-5.32.866-8.022l-2.067-.258-2.216 5.768h-.007ZM126.121 23.21c-2.501.245-4.906.354-6.893.474-.148-3.908-.148-7.343-.148-10.438V5.698c0-2.592 1.205-3.148 3.163-3.473V.732a125.88 125.88 0 0 0-11.555 0v1.493c.795.368 1.891.693 3.014.88.19 3.463.19 6.636.19 10.142v7.548c0 2.377-1.053 3.134-3.201 3.434v1.493h18.853c.623-2.703.905-5.32.866-8.022l-2.067-.258-2.215 5.768h-.007ZM150.247 23.278c-3.272.286-5.811.368-9.231.435-.134-3.463-.176-6.53-.176-9.338h5.082c.148 1.057.472 2.119.948 3.028h1.634V8.758h-1.743c-.406 1.75-.772 3.028-2.582 3.028h-3.339V2.702c2.906.082 5.854.259 8.974.626l1.229 4.56 2.068-.258a27.247 27.247 0 0 0 0-7.262c-4.568.325-9.513.368-12.271.368-2.539 0-4.216-.043-8.393-.177V2.2c.796.354 1.853.651 2.973.828.19 3.367.229 7.113.229 10.222v7.548c0 2.377-1.053 3.134-3.202 3.435v1.492h20.988c.581-2.377.877-4.778.771-7.152l-2.039-.258-1.92 4.966v-.003ZM176.397 19.45l-3.12-5.252c3.377-1.249 5.445-3.65 5.445-6.855 0-3.87-3.04-6.87-9.583-6.87-1.892 0-3.378.217-4.797.26-2.11 0-3.853-.043-7.555-.178v1.641c.796.354 1.853.651 2.973.87.19 3.287.229 7.071.229 10.18v7.506c0 2.593-1.244 3.148-3.202 3.474v1.492h11.556v-1.492c-.772-.368-1.853-.665-2.987-.881a208.933 208.933 0 0 1-.176-8.2h2.215c.324 0 .648 0 .972-.042l4.515 7.764c.758 1.316 1.339 2.55 1.596 3.258 2.472-.34 4.649-.407 7.34-.407l.176-1.492c-2.691-.775-4.11-2.307-5.597-4.78v.004Zm-8.635-6.893h-2.582V3.286c.972-.177 2.029-.368 3.015-.368 2.796 0 4.582 1.684 4.582 4.669 0 3.502-2.325 4.966-5.015 4.966v.004ZM226.716 2.225V.732c-2.839-.177-6.353-.177-8.932 0v1.493c.758.325 1.959.693 2.906.88l-4.283 16.084-5.526-18.46h-3.81l-5.664 19.192-3.634-14.265c-.691-2.741.729-3.215 2.215-3.435V.732c-3.42-.177-8.136-.177-11.584 0v1.493c.796.325 2.029.693 2.934.88l5.921 20.17c.257.841.552 2.008.662 2.443h4.539c.029-.474.286-1.602.539-2.444l4.758-14.891 4.435 14.891c.257.76.623 2.038.648 2.444h4.539c0-.435.324-1.683.553-2.444l5.121-17.47c.758-2.702 1.987-3.176 3.663-3.583v.004ZM240.539 2.674c-.405-1.057-.624-1.765-.624-1.942-1.338-.177-2.948-.177-4.068 0 0 .216-.148.952-.538 1.967l-7.34 17.944c-1.053 2.525-2.691 3.367-3.92 3.583v1.492h8.379v-1.492a11.848 11.848 0 0 0-2.434-.775l1.933-5.104h9.665l.905 2.296c1.014 2.631-.405 3.257-2.177 3.583v1.492h11.732v-1.492c-.662-.297-1.61-.584-2.539-.8l-8.974-20.752Zm-7.664 13.084 3.811-10.099 3.92 10.099h-7.731ZM266.231 14.849c.796.325 1.987.665 2.906.8.176 2.96.215 5.835.215 7.629-1.31.474-2.582.732-3.677.732-4.758 0-7.583-4.383-7.583-10.955 0-6.571 2.825-10.614 7.84-10.614 1.271 0 2.581.258 4.001.799l1.447 5.401 2.068-.258c.338-2.335.296-4.549 0-6.883-2.568-1.058-5.001-1.507-7.407-1.507-8.312 0-13.908 5.401-13.908 13.356s5.082 13.098 13.042 13.098c2.972 0 6.202-.775 9.365-2.526v-5.645c0-2.702 1.271-3.215 3.12-3.434v-1.454a114.112 114.112 0 0 0-11.432 0v1.454l.003.007ZM296.345 2.225c.796.407 1.878.693 2.973.88.109 2.66.176 6.339.176 14.984L286.681.729h-1.634c-1.677 0-2.406 0-5.854-.177v1.67c.796.325 2.04.693 2.973.88.19 3.392.229 7.07.229 10.098v7.549c0 2.783-1.458 3.176-3.202 3.473v1.493h9.041v-1.493c-.866-.407-2-.732-3.015-.909-.147-3.473-.176-6.788-.176-10.113V7.106l11.989 16.097c.905 1.302 1.486 2.253 1.486 2.512h3.554V5.727c0-2.66 1.243-3.205 3.163-3.502V.732c-3.015-.177-6.136-.177-8.893 0v1.493h.003ZM325.253 23.278c-3.272.286-5.811.368-9.231.435-.134-3.463-.176-6.53-.176-9.338h5.082c.148 1.057.472 2.119.948 3.028h1.634V8.758h-1.744c-.405 1.75-.757 3.028-2.581 3.028h-3.339V2.702c2.906.082 5.853.259 8.974.626l1.229 4.56 2.067-.258a27.247 27.247 0 0 0 0-7.262c-4.568.325-9.512.368-12.27.368-2.539 0-4.216-.043-8.393-.177V2.2c.796.354 1.853.651 2.973.828.19 3.367.229 7.113.229 10.222v7.548c0 2.377-1.053 3.134-3.202 3.435v1.492h20.987c.582-2.377.877-4.778.772-7.152l-2.039-.258-1.92 4.966v-.003ZM351.403 19.45l-3.12-5.252c3.377-1.249 5.445-3.65 5.445-6.855 0-3.87-3.04-6.869-9.584-6.869-1.891 0-3.377.216-4.796.258-2.11 0-3.853-.042-7.555-.177v1.642c.796.353 1.852.65 2.972.87.191 3.286.229 7.07.229 10.18v7.505c0 2.593-1.243 3.148-3.201 3.474v1.492h11.555v-1.492c-.771-.368-1.852-.665-2.986-.881a208.933 208.933 0 0 1-.176-8.2h2.215c.324 0 .648 0 .972-.042l4.515 7.764c.758 1.316 1.339 2.55 1.596 3.258 2.472-.34 4.649-.407 7.34-.407l.176-1.492c-2.691-.775-4.096-2.307-5.597-4.779v.004Zm-8.636-6.893h-2.581V3.286c.972-.177 2.028-.368 3.015-.368 2.796 0 4.582 1.684 4.582 4.67 0 3.5-2.325 4.965-5.016 4.965v.004ZM5.37 32.796.339 45.656h1.246l1.511-4.038h5.84l1.468 4.039h1.247L6.748 32.796H5.37Zm-1.863 7.785 2.501-6.752L8.52 40.58H3.507ZM23.347 36.298a6.83 6.83 0 0 0-.659-1.412 3.6 3.6 0 0 0-1.042-1.12 4.71 4.71 0 0 0-.906-.524 5.724 5.724 0 0 0-.979-.297c-.341-.053-.68-.107-1.021-.128-.331-.021-.69-.021-1.042-.021h-4.382v12.86h4.382c.426 0 .852-.02 1.253-.073.416-.032.82-.106 1.212-.223a5.24 5.24 0 0 0 1.106-.47c.341-.192.658-.46.958-.804.296-.322.553-.682.743-1.068.2-.385.341-.792.468-1.217.117-.417.212-.845.268-1.28.053-.45.063-.877.063-1.312 0-.435-.031-.888-.084-1.412a9.421 9.421 0 0 0-.342-1.496l.004-.003Zm-.874 4.283a5.95 5.95 0 0 1-.33 1.355c-.16.45-.395.845-.66 1.217a2.839 2.839 0 0 1-1.053.877c-.5.269-.979.428-1.458.48-.479.075-1 .107-1.542.107h-2.906V33.829h2.906c.532 0 1.063.042 1.574.095.521.053.98.191 1.349.386.447.233.82.545 1.106.898.289.375.521.771.68 1.196.158.449.274.898.33 1.376.054.48.096.962.096 1.422 0 .46-.042.898-.095 1.38h.003ZM30.112 44.224 26.25 32.796h-1.265l4.445 12.86h1.331l4.445-12.86h-1.254l-3.839 11.428ZM46.846 34.42a5.631 5.631 0 0 0-1.884-1.444c-.768-.343-1.638-.523-2.628-.523-.99 0-1.82.18-2.543.545a5.367 5.367 0 0 0-1.849 1.443 6.49 6.49 0 0 0-1.127 2.157c-.267.825-.383 1.698-.383 2.65 0 .951.116 1.804.373 2.607.246.824.616 1.538 1.116 2.147.5.618 1.117 1.1 1.874 1.464.743.354 1.616.534 2.596.534.979 0 1.849-.18 2.595-.534.747-.364 1.374-.846 1.863-1.465.5-.608.874-1.322 1.138-2.146.257-.8.373-1.677.373-2.607 0-.93-.116-1.829-.373-2.66a6.727 6.727 0 0 0-1.138-2.169h-.003Zm.042 6.985c-.2.694-.479 1.306-.863 1.829-.384.513-.884.94-1.468 1.249-.606.322-1.321.48-2.16.48-.838 0-1.563-.159-2.148-.47a3.97 3.97 0 0 1-1.479-1.252 5.23 5.23 0 0 1-.852-1.815 8.159 8.159 0 0 1-.29-2.178c0-.768.096-1.465.29-2.169a5.527 5.527 0 0 1 .852-1.835c.373-.513.873-.941 1.48-1.26.584-.321 1.299-.491 2.116-.491.733 0 1.405.127 1.99.396.584.269 1.106.64 1.51 1.142.416.503.733 1.111.97 1.808.21.714.32 1.517.32 2.416 0 .746-.095 1.464-.268 2.157v-.007ZM59.395 42.838a4.17 4.17 0 0 1-.853 1.1 3.735 3.735 0 0 1-1.19.757c-.447.17-.947.269-1.5.269-.874 0-1.596-.16-2.18-.503-.596-.343-1.054-.77-1.395-1.326a5.262 5.262 0 0 1-.722-1.836 9.378 9.378 0 0 1-.233-2.104c0-.772.085-1.486.268-2.18a5.012 5.012 0 0 1 .796-1.807c.363-.523.82-.951 1.373-1.248.553-.301 1.223-.47 1.99-.47 1.085 0 1.98.233 2.649.703.68.46 1.137 1.249 1.395 2.338h1.243a6.013 6.013 0 0 0-.574-1.772 4.186 4.186 0 0 0-1.064-1.27 5.299 5.299 0 0 0-1.49-.778 6.816 6.816 0 0 0-1.842-.258c-.852 0-1.627.127-2.36.364a4.73 4.73 0 0 0-1.884 1.175c-.531.555-.947 1.248-1.246 2.115-.31.856-.469 1.892-.469 3.12 0 .909.106 1.782.31 2.596a6.09 6.09 0 0 0 .98 2.157 4.65 4.65 0 0 0 1.7 1.465c.69.375 1.554.555 2.533.555.852 0 1.595-.127 2.233-.375a4.876 4.876 0 0 0 1.616-.983c.447-.418.81-.92 1.074-1.465a7.994 7.994 0 0 0 .617-1.75h-1.268a5.33 5.33 0 0 1-.51 1.41h.003ZM67.343 32.796l-5.033 12.86h1.247l1.511-4.039h5.84l1.468 4.04h1.247L68.72 32.796h-1.377ZM65.48 40.58l2.5-6.752 2.512 6.752H65.48ZM74.14 33.832h4.05v11.825h1.212V33.832h4.054v-1.036H74.14v1.036ZM86.352 39.513h6.593v-1.036h-6.593v-4.645h7.308v-1.036h-8.523v12.86h8.702V44.62h-7.487v-5.107ZM104.307 40.69a3.174 3.174 0 0 0-.842-.993 4.28 4.28 0 0 0-1.169-.63c-.448-.159-.916-.29-1.395-.407l-1.384-.321a6.366 6.366 0 0 1-1.268-.397 3.37 3.37 0 0 1-.958-.608c-.268-.255-.426-.587-.5-1.005a2.432 2.432 0 0 1 .053-.993c.084-.34.267-.651.51-.92a3.063 3.063 0 0 1 1.022-.672c.405-.16.926-.255 1.542-.255.416 0 .8.053 1.18.17.374.106.701.269 1.011.492.296.233.532.523.711.877.159.364.247.792.247 1.273h1.159a4.26 4.26 0 0 0-.268-1.485 3.543 3.543 0 0 0-.799-1.228 3.845 3.845 0 0 0-1.339-.82 5.719 5.719 0 0 0-1.905-.312c-.736 0-1.332.096-1.884.29-.553.206-1 .45-1.35.771a3.07 3.07 0 0 0-.82 1.111c-.19.407-.289.835-.289 1.28 0 .63.106 1.143.342 1.56.232.407.521.747.894 1.015.353.27.768.46 1.247.62.458.159.937.29 1.437.396.48.127.958.233 1.448.364a6.16 6.16 0 0 1 1.246.46c.353.201.638.47.874.77.225.298.331.715.331 1.218 0 .353-.053.693-.169 1.015a2.232 2.232 0 0 1-.595.842 2.88 2.88 0 0 1-1.011.587c-.405.138-.905.212-1.479.212-.48 0-.937-.053-1.363-.18a2.976 2.976 0 0 1-1.127-.535 2.488 2.488 0 0 1-.796-.983c-.212-.396-.342-.877-.395-1.443h-1.17c0 .693.128 1.305.353 1.815.233.523.553.962.969 1.305.405.364.905.63 1.468.8a6.89 6.89 0 0 0 1.85.254c1.479 0 2.637-.319 3.458-.983.81-.662 1.222-1.57 1.222-2.767 0-.63-.106-1.142-.296-1.56h-.003Z" fill="#000"/></svg>