<svg width="130" height="130" fill="none" xmlns="http://www.w3.org/2000/svg"><path d="m78.25 71.081-12 6.646V65.395l12-6.646v12.332Zm-.798-13.604L65.5 64.096l-11.952-6.62L65.5 50.858l11.952 6.62ZM52.75 71.08V58.75l12 6.646v12.332l-12-6.646Z" fill="#2C2A22" stroke="#878686" stroke-width="1.5"/><path fill-rule="evenodd" clip-rule="evenodd" d="M99.066 46.676V45.56L65.238 26.514 31.41 45.56v37.622l33.828 18.89 33.828-18.89V46.786l.049-.027-.049-.083Zm-2.968-.49-8.665 4.977.01.017-22.36-12.891-22.137 12.935.051-.088-8.618-4.951 30.86-17.376 30.86 17.376Zm.968 1.75-8.588 4.933v25.162L66.236 90.626v8.599l30.83-17.216V47.935Zm-32.83 51.286L33.41 82.009V47.935l8.58 4.929.01-.018V78.03l22.236 12.76v8.431Zm.855-58.62L44 52.924v23.948l21.09 12.103 21.388-12.111V52.933L65.09 40.6Z" fill="#878686"/><path fill-rule="evenodd" clip-rule="evenodd" d="m9.85 34.4.15-.256v-.965l.853-.498.005-.008.004.003L65.237 1l54.375 31.675.006-.003.006.01.852.496v.965l.149.256-.149.086v62.19l-55.239 31.892L10 96.675V34.487l-.15-.086ZM65.237 3.316l-52.374 30.51 9.308 5.348L65.24 14.738l43.065 24.433 9.306-5.346-52.374-30.51Zm44.108 37.565 9.131-5.246v59.887L66.237 125.68v-11.341h-.132l43.24-24.532V40.88ZM11.999 95.52l52.238 30.16v-11.341h.138l-43.24-24.532V40.883l-9.136-5.248V95.52Zm11.136-54.594L65.24 17.038l42.105 23.888v47.716L65.24 112.53 23.135 88.642V40.926Z" fill="#878686"/></svg>