<svg width="130" height="120" fill="none" xmlns="http://www.w3.org/2000/svg"><path fill-rule="evenodd" clip-rule="evenodd" d="M9 4h111v112H9V4Zm14.416 13.445L11.632 5.555h23.567l-11.783 11.89Zm1.09 1.1 11.783-11.89v23.78l-11.783-11.89Zm-1.09 1.1 11.783 11.89H11.632l11.784-11.89Zm-1.09-1.1-11.784 11.89V6.655l11.784 11.89Zm28.48-1.1L39.02 5.555H62.59l-11.784 11.89Zm1.09 1.1 11.783-11.89v23.78l-11.784-11.89Zm-1.09 1.1 11.783 11.89H39.021l11.784-11.89Zm-1.09-1.1L37.93 30.436V6.655l11.784 11.89ZM66.41 5.556l11.784 11.89 11.784-11.89H66.41Zm24.658 1.1-11.784 11.89 11.784 11.89V6.655Zm-1.09 24.88-11.784-11.89-11.784 11.89h23.568Zm-24.658-1.1 11.784-11.89L65.32 6.655v23.78Zm40.263-12.99L93.801 5.555h23.567l-11.784 11.89Zm1.091 1.1 11.783-11.89v23.78l-11.783-11.89Zm-1.091 1.1 11.784 11.89H93.801l11.783-11.89Zm-1.09-1.1L92.71 30.436V6.655l11.784 11.89ZM11.632 33.193l11.784 11.89 11.783-11.89H11.632Zm24.657 1.1-11.783 11.89 11.783 11.89v-23.78Zm-1.09 24.88-11.783-11.89-11.784 11.89h23.567Zm-24.657-1.1 11.784-11.89-11.784-11.89v23.78Zm40.263-12.99-11.784-11.89H62.59l-11.784 11.89Zm1.09 1.1 11.784-11.89v23.78l-11.784-11.89Zm-1.09 1.1 11.784 11.89H39.021l11.784-11.89Zm-1.09-1.1-11.784 11.89v-23.78l11.784 11.89Zm16.696-12.99 11.784 11.89 11.784-11.89H66.41Zm24.658 1.1-11.784 11.89 11.784 11.89v-23.78Zm-1.09 24.88-11.784-11.89-11.784 11.89h23.568Zm-24.658-1.1 11.784-11.89-11.784-11.89v23.78Zm40.263-12.99-11.783-11.89h23.567l-11.784 11.89Zm1.091 1.1 11.783-11.89v23.78l-11.783-11.89Zm-1.091 1.1 11.784 11.89H93.801l11.783-11.89Zm-1.09-1.1L92.71 58.072v-23.78l11.784 11.89ZM11.632 60.83l11.784 11.89 11.783-11.89H11.632Zm24.657 1.1-11.783 11.89 11.783 11.89v-23.78Zm-1.09 24.88-11.783-11.89-11.784 11.89h23.567Zm-24.657-1.1 11.784-11.89-11.784-11.89v23.78Zm40.263-12.99-11.784-11.89H62.59l-11.784 11.89Zm1.09 1.1 11.784-11.89v23.78l-11.784-11.89Zm-1.09 1.1 11.784 11.89H39.021l11.784-11.89Zm-1.09-1.1-11.784 11.89v-23.78l11.784 11.89Zm16.696-12.99 11.784 11.89 11.784-11.89H66.41Zm24.658 1.1-11.784 11.89 11.784 11.89v-23.78Zm-1.09 24.88-11.784-11.89-11.784 11.89h23.568Zm-24.658-1.1 11.784-11.89-11.784-11.89v23.78Zm40.263-12.99-11.783-11.89h23.567l-11.784 11.89Zm1.091 1.1 11.783-11.89v23.78l-11.783-11.89Zm-1.091 1.1 11.784 11.89H93.801l11.783-11.89Zm-1.09-1.1L92.71 85.709v-23.78l11.784 11.89ZM11.632 88.465l11.784 11.89 11.783-11.89H11.632Zm24.657 1.1-11.783 11.89 11.783 11.889v-23.78Zm-1.09 24.879-11.783-11.89-11.784 11.89h23.567Zm-24.657-1.1 11.784-11.889-11.784-11.89v23.779Zm40.263-12.989-11.784-11.89H62.59l-11.784 11.89Zm1.09 1.1 11.784-11.89v23.779l-11.784-11.889Zm-1.09 1.099 11.784 11.89H39.021l11.784-11.89Zm-1.09-1.099-11.784 11.889v-23.78l11.784 11.891Zm16.696-12.99 11.784 11.89 11.784-11.89H66.41Zm24.658 1.1-11.784 11.89 11.784 11.889v-23.78Zm-1.09 24.879-11.784-11.89-11.784 11.89h23.568Zm-24.658-1.1 11.784-11.889-11.784-11.89v23.779Zm40.263-12.989-11.783-11.89h23.567l-11.784 11.89Zm1.091 1.1 11.783-11.89v23.779l-11.783-11.889Zm-1.091 1.099 11.784 11.89H93.801l11.783-11.89Zm-1.09-1.099L92.71 113.344v-23.78l11.784 11.891Z" fill="#878686"/><path d="m78.195 47.282 11.784 11.89H66.41l11.784-11.89ZM77.105 46.182 65.32 58.072v-23.78l11.784 11.89ZM39.021 60.829l11.784 11.89 11.784-11.89H39.021ZM63.68 61.929l-11.785 11.89 11.784 11.89v-23.78ZM77.105 73.819 65.32 85.709v-23.78l11.784 11.89ZM78.195 72.719 66.41 60.829h23.568l-11.784 11.89ZM62.589 59.172l-11.784-11.89-11.784 11.89H62.59ZM63.68 34.292l-11.785 11.89 11.784 11.89v-23.78Z" fill="#2C2A22"/></svg>