<svg width="127" height="127" fill="none" xmlns="http://www.w3.org/2000/svg"><path stroke="#878686" stroke-width="2.5" d="M1.768 63.5 63.5 1.767 125.233 63.5 63.5 125.232z"/><path stroke="#878686" stroke-width="2.5" d="m10.801 63.5 52.661-52.661L116.123 63.5l-52.66 52.661z"/><path stroke="#878686" stroke-width="2.5" d="m19.832 63.5 43.59-43.59 43.59 43.59-43.59 43.59z"/><path stroke="#878686" stroke-width="2.5" d="m28.865 63.5 34.518-34.518L97.901 63.5 63.383 98.018z"/><path stroke="#878686" stroke-width="2.5" d="m37.9 63.5 25.448-25.447L88.794 63.5 63.348 88.946z"/><path d="m47.375 63.86 15.937-15.936 15.936 15.937-15.936 15.936-15.937-15.936Z" fill="#2C2A22" stroke="#878686" stroke-width="2.5"/><path transform="rotate(-45 54.422 63.86)" fill="url(#a)" d="M54.422 63.861h12.519V76.38H54.422z"/><defs><radialGradient id="a" cx="0" cy="0" r="1" gradientUnits="userSpaceOnUse" gradientTransform="rotate(90 -4.72 65.4) scale(6.25941)"><stop stop-color="#B7B7B7"/><stop offset="1" stop-color="#B0A98F" stop-opacity="0"/></radialGradient></defs></svg>